<?xml version="1.0" standalone="no"?><!DOCTYPE svg PUBLIC "-//W3C//DTD SVG 1.1//EN" "http://www.w3.org/Graphics/SVG/1.1/DTD/svg11.dtd"><svg t="1587217838760" class="icon" viewBox="0 0 1024 1024" version="1.1" xmlns="http://www.w3.org/2000/svg" p-id="3409" xmlns:xlink="http://www.w3.org/1999/xlink" width="200" height="200"><defs><style type="text/css"></style></defs><path d="M512 405.333333m-64 0a64 64 0 1 0 128 0 64 64 0 1 0-128 0Z" p-id="3410"></path><path d="M512 85.333333a341.333333 341.333333 0 0 0-341.333333 337.92c0 233.813333 300.8 494.08 313.6 505.173334a42.666667 42.666667 0 0 0 55.466666 0C554.666667 917.333333 853.333333 657.066667 853.333333 423.253333A341.333333 341.333333 0 0 0 512 85.333333z m0 469.333334a149.333333 149.333333 0 1 1 149.333333-149.333334A149.333333 149.333333 0 0 1 512 554.666667z" p-id="3411"></path></svg>